<svg width="40" height="40" viewBox="0 0 40 40" fill="none" xmlns="http://www.w3.org/2000/svg">
<path d="M31.1137 39.9897C30.7932 39.991 30.4771 39.9117 30.1918 39.7582L19.9699 34.1398L9.74809 39.7582C9.41617 39.9414 9.04194 40.0233 8.66794 39.9943C8.29394 39.9654 7.93517 39.8268 7.63243 39.5945C7.32968 39.3621 7.0951 39.0453 6.95535 38.6799C6.8156 38.3145 6.77629 37.9153 6.84188 37.5277L8.84616 25.6807L0.588517 17.2636C0.330882 16.9937 0.148119 16.6552 0.059843 16.2845C-0.0284334 15.9138 -0.0188909 15.5248 0.0874464 15.1594C0.203615 14.7854 0.417304 14.4531 0.704265 14.2001C0.991226 13.9472 1.33997 13.7838 1.71092 13.7285L13.1353 11.9819L18.1661 1.18704C18.3302 0.831267 18.5865 0.531226 18.9055 0.321287C19.2245 0.111348 19.5934 0 19.9699 0C20.3465 0 20.7154 0.111348 21.0344 0.321287C21.3534 0.531226 21.6097 0.831267 21.7738 1.18704L26.8647 11.9609L38.2891 13.7074C38.66 13.7628 39.0088 13.9262 39.2957 14.1791C39.5827 14.432 39.7964 14.7643 39.9126 15.1383C40.0189 15.5038 40.0284 15.8927 39.9402 16.2634C39.8519 16.6342 39.6691 16.9727 39.4115 17.2426L31.1538 25.6596L33.1581 37.5066C33.2297 37.9011 33.1922 38.3089 33.0501 38.6818C32.9081 39.0546 32.6674 39.377 32.3564 39.6109C31.9935 39.8779 31.5565 40.0111 31.1137 39.9897Z" fill="#F7FB3F"/>
</svg>
