<svg width="40" height="40" viewBox="0 0 40 40" fill="none" xmlns="http://www.w3.org/2000/svg">
<path d="M39.9692 16.0172C40.169 14.9691 39.3696 13.7113 38.3704 13.7113L26.9792 12.0343L21.7832 1.13396C21.5834 0.714717 21.3835 0.505094 20.9838 0.295471C19.9846 -0.333397 18.7855 0.085849 18.186 1.13396L13.1898 12.0343L1.79861 13.7113C1.19908 13.7113 0.799383 13.9209 0.599538 14.3402C-0.199846 15.1787 -0.199846 16.4364 0.599538 17.2749L8.79322 25.6598L6.79476 37.6083C6.79476 38.0275 6.79476 38.4468 6.9946 38.866C7.59414 39.9142 8.79322 40.3334 9.79245 39.7045L19.9846 34.0447L30.1767 39.7045C30.3766 39.9142 30.7763 39.9142 31.176 39.9142C31.3758 39.9142 31.3758 39.9142 31.5756 39.9142C32.5749 39.7045 33.3743 38.6564 33.1744 37.3987L31.176 25.4502L39.3696 17.0653C39.7693 16.8557 39.9692 16.4364 39.9692 16.0172ZM27.5787 23.354C27.179 23.7732 26.9792 24.6117 26.9792 25.2406L28.3781 34.0447L20.784 29.8523C20.5841 29.6426 20.1844 29.6426 19.7847 29.6426V6.79377L23.5818 14.7594C23.7817 15.3883 24.3812 15.8075 25.1806 15.8075L33.5741 17.0653L27.5787 23.354Z" fill="#F7FB3F"/>
</svg>
