<svg width="40" height="40" viewBox="0 0 40 40" fill="none" xmlns="http://www.w3.org/2000/svg">
<path d="M30.323 39.9996C29.7998 39.9996 29.2734 39.8678 28.7887 39.6026L20.0437 34.8061L11.2107 39.6009C10.6672 39.9022 10.0533 40.0374 9.4394 39.9911C8.82553 39.9448 8.23666 39.7187 7.74049 39.339C7.24107 38.9642 6.85317 38.4501 6.62139 37.8557C6.3896 37.2613 6.32333 36.6109 6.43018 35.979L8.10047 25.8256L0.998546 18.5467C0.555776 18.1007 0.242675 17.5334 0.0952256 16.9101C-0.0522238 16.2868 -0.0280387 15.6328 0.165002 15.0232C0.353396 14.4126 0.702875 13.8697 1.17342 13.4567C1.64396 13.0436 2.21655 12.7771 2.82562 12.6876L12.601 11.2061L17.0455 1.91356C17.6054 0.732392 18.7366 0 20.0005 0C21.2644 0 22.3955 0.732392 22.9555 1.91356L27.328 11.151L37.1753 12.6876C37.7844 12.7771 38.357 13.0436 38.8275 13.4567C39.2981 13.8697 39.6475 14.4126 39.8359 15.0232C40.0282 15.6329 40.052 16.2867 39.9046 16.9098C39.7572 17.533 39.4445 18.1002 39.0024 18.5467L31.9277 25.7372L33.5708 35.9806C33.6766 36.6125 33.6099 37.2626 33.3782 37.8568C33.1465 38.451 32.7592 38.9652 32.2604 39.3406C31.6971 39.7672 31.0192 39.9978 30.323 39.9996ZM3.2304 16.1577L10.3035 23.3481C11.0795 24.1389 11.4346 25.2734 11.2523 26.3878L9.58357 36.5429L10.4667 38.1244L9.72116 36.648L18.4646 31.8532C18.9375 31.5941 19.4637 31.4586 19.9979 31.4584C20.5321 31.4581 21.0584 31.593 21.5316 31.8515L30.2766 36.648L30.4142 36.5429L28.7439 26.3895C28.6541 25.8405 28.6934 25.2769 28.8584 24.7472C29.0233 24.2175 29.309 23.7374 29.691 23.3481L36.7657 16.1577L36.7129 15.9858L26.9376 14.5044C26.409 14.4237 25.907 14.2104 25.4748 13.8829C25.0426 13.5555 24.6931 13.1235 24.4562 12.6242L20.0837 3.38669C20.0709 3.36 20.0565 3.3333 19.9973 3.3333L15.5384 12.6242C15.3022 13.1234 14.9533 13.5554 14.5216 13.8829C14.0899 14.2104 13.5884 14.4237 13.0601 14.5044L3.28159 15.9858L2.11207 17.3505L3.2304 16.1577Z" fill="#F7FB3F"/>
</svg>
